<svg xmlns="http://www.w3.org/2000/svg" xmlns:xlink="http://www.w3.org/1999/xlink" width="91" height="66" viewBox="0 0 91 66"><defs><path id="d4xsa" d="M252.75 4013.25c0 4.963-4.036 9-9 9s-9-4.037-9-9 4.036-9 9-9c4.962 0 9 4.037 9 9zm-3 0c0-3.31-2.691-6-6-6-3.31 0-6 2.69-6 6 0 3.309 2.69 6 6 6 3.309 0 6-2.691 6-6z"/><path id="d4xsb" d="M303.75 4013.25c0 4.963-4.037 9-9 9-4.964 0-9-4.037-9-9s4.036-9 9-9c4.963 0 9 4.037 9 9zm-3 0c0-3.31-2.691-6-6-6-3.31 0-6 2.69-6 6 0 3.309 2.69 6 6 6 3.309 0 6-2.691 6-6z"/><path id="d4xsc" d="M312.511 3995.938l-13.5-21a1.499 1.499 0 0 0-1.262-.688h-16.5a1.5 1.5 0 0 0-1.499 1.5v37.5c0 .83.67 1.5 1.5 1.5h6v-3h-4.5v-34.5h14.18l12.82 19.94v14.56h-7.5v3h9c.829 0 1.5-.67 1.5-1.5v-16.5c0-.287-.082-.57-.239-.812z"/><path id="d4xsd" d="M288.75 3993.75v-10.5h12v-3h-13.5a1.5 1.5 0 0 0-1.5 1.5v13.5c0 .829.67 1.5 1.5 1.5h22.5v-3h-21z"/><path id="d4xse" d="M281.25 3963.75h-57a1.5 1.5 0 0 0-1.5 1.5v48c0 .83.672 1.5 1.5 1.5h12v-3h-10.501v-45h54.001v45h-28.5v3h30c.83 0 1.5-.67 1.5-1.5v-48a1.5 1.5 0 0 0-1.5-1.5z"/><path id="d4xsf" d="M224.25 4005.75h9v3h-9z"/><path id="d4xsg" d="M254.25 4005.75h25.5v3h-25.5z"/><path id="d4xsh" d="M305.25 4005.75h6v3h-6z"/><path id="d4xsi" d="M228.75 3969.75h52.5v3h-52.5z"/><path id="d4xsj" d="M242.25 4011.75h3v3h-3z"/><path id="d4xsk" d="M293.25 4011.75h3v3h-3z"/><path id="d4xsl" d="M228.75 3957.75h21v3h-21z"/><path id="d4xsm" d="M222.75 3957.75h2.999v3h-3z"/></defs><g><g transform="translate(-222 -3957)"><g><g><g><g><use fill="#004cff" xlink:href="#d4xsa"/></g></g></g><g><g><g><use fill="#004cff" xlink:href="#d4xsb"/></g></g></g><g><g><g><use fill="#004cff" xlink:href="#d4xsc"/></g></g></g><g><g><g><use fill="#004cff" xlink:href="#d4xsd"/></g></g></g><g><g><g><use fill="#004cff" xlink:href="#d4xse"/></g></g></g><g><g><g><use fill="#004cff" xlink:href="#d4xsf"/></g></g></g><g><g><g><use fill="#004cff" xlink:href="#d4xsg"/></g></g></g><g><g><g><use fill="#004cff" xlink:href="#d4xsh"/></g></g></g><g><g><g><use fill="#004cff" xlink:href="#d4xsi"/></g></g></g><g><g><g><use fill="#004cff" xlink:href="#d4xsj"/></g></g></g><g><g><g><use fill="#004cff" xlink:href="#d4xsk"/></g></g></g><g><g><g><use fill="#004cff" xlink:href="#d4xsl"/></g></g></g><g><g><g><use fill="#004cff" xlink:href="#d4xsm"/></g></g></g></g></g></g></svg>