<svg xmlns="http://www.w3.org/2000/svg" xmlns:xlink="http://www.w3.org/1999/xlink" width="68" height="42" viewBox="0 0 68 42"><defs><path id="pydda" d="M1181.25 5061.75h67.5v40.5h-67.5z"/><path id="pyddb" d="M1203.463 5082.701h-8.418s.141 3.016 3.156 3.016c2.385.07 2.807-1.543 2.807-1.543h2.174s-.21 3.016-4.98 3.016c-5.542 0-5.261-4.77-5.261-4.77-.07-1.052.14-5.19 5.401-5.19 5.822 0 5.19 5.471 5.12 5.471zm-2.175-1.403s0-2.665-3.016-2.665-3.157 2.665-3.157 2.665z"/><path id="pyddc" d="M1198.272 5077.23c5.822 0 5.19 5.471 5.19 5.471h-8.417s.141 3.016 3.156 3.016c2.385.07 2.807-1.543 2.807-1.543h2.174s-.21 3.016-4.98 3.016c-5.542 0-5.261-5.4-5.261-5.4m8.347-.492s0-2.665-3.016-2.665-3.157 2.665-3.157 2.665z"/><path id="pyddd" d="M1214.544 5082.28c-.07 3.157-2.314 4.91-5.12 4.91-2.805 0-3.787-1.543-3.787-1.543l-.07 1.263h-2.035c.07-.702.07-2.175.07-2.175l-.07-11.152h2.385v5.26s.982-1.543 3.648-1.543c2.594 0 4.98 1.824 4.98 4.98zm-2.314.07s.07-3.647-3.296-3.577c-3.438.07-3.297 3.507-3.297 3.507s0 3.578 3.297 3.507c3.296-.07 3.296-3.437 3.296-3.437z"/><path id="pydde" d="M1214.475 5082.28c-.07 3.157-2.316 4.91-5.121 4.91-2.805 0-3.787-1.543-3.787-1.543l-.071 1.263h-2.034c.07-.702.07-2.175.07-2.175v-8.978l2.385-2.174v5.26s.982-1.543 3.648-1.543c2.594 0 4.98 1.824 4.91 4.98zm-2.245.07s.07-3.647-3.296-3.577c-3.438.07-3.297 3.507-3.297 3.507s0 3.578 3.297 3.507c3.296-.07 3.296-3.437 3.296-3.437z"/><path id="pyddf" d="M1224.224 5086.91h-1.963l-.071-1.333c-.841 1.052-1.964 1.613-3.928 1.613s-4.419-.842-3.998-3.647c.35-2.385 4.208-2.525 5.331-2.525.631 0 2.455-.07 2.455-.07 0-1.333-.35-2.385-2.525-2.455-2.315-.07-2.455 1.332-2.455 1.332h-2.245c.491-2.805 4.84-2.735 4.84-2.735 4.56.21 4.42 2.875 4.49 3.928.07.911 0 2.174 0 3.647 0 1.473.07 2.174.07 2.245zm-2.244-4.42h-2.385s-3.367-.14-3.227 1.684c.14 1.684 2.245 1.684 2.245 1.684 3.857.07 3.437-3.368 3.367-3.368z"/><path id="pyddg" d="M1219.735 5077.23c4.559.21 4.35 2.876 4.42 3.928.07.912 0 2.175 0 3.647 0 1.473.07 2.175.07 2.175h-1.964l-.071-1.333c-.841 1.052-1.964 1.613-3.928 1.613s-4.419-.841-3.998-3.647c.35-2.385 4.208-2.525 5.331-2.525.631 0 2.455-.07 2.455-.07 0-1.333-.35-2.385-2.525-2.455-2.315-.07-2.455 1.332-2.455 1.332h-2.034m6.944 2.595h-2.385s-3.367-.14-3.227 1.684c.14 1.684 2.245 1.684 2.245 1.684 3.857.07 3.437-3.368 3.367-3.368z"/><path id="pyddh" d="M1223.032 5077.79h2.454l3.578 7.155 3.577-7.154h2.244l-6.522 12.625h-2.385l1.893-3.506z"/><path id="pyddi" d="M1224.013 5079.615l1.474-1.824 3.577 7.084 3.577-7.084h2.244l-6.522 12.625h-2.385l1.893-3.577z"/><path id="pyddj" d="M1235.658 5078.142v-.28h-.071v-.071h.07v-.14h.14v.14h.141v.07h-.14v.28c0 .07 0 .07.07.07h.07v.071h-.14c-.07.07-.14 0-.14-.14z"/><path id="pyddk" d="M1236.148 5077.79h.14v.071c.07-.07.07-.07.21-.07.071 0 .141 0 .211.07.07-.07.141-.07.21-.07.14 0 .212.07.212.21v.351h-.141v-.28c0-.07-.07-.14-.14-.14a.15.15 0 0 0-.14.14v.28h-.14v-.28c0-.07-.072-.14-.142-.14-.07 0-.14.07-.14.14v.28h-.14v-.561z"/><path id="pyddl" d="M1201.078 5080.176c.28.56.28 1.122.28 1.122h-6.243s0-1.543 1.403-2.244c-1.403.21-2.595.911-3.507 1.964-.14.56-.14 1.122-.14 1.403 0 0-.28 4.769 5.26 4.769 4.07 0 4.84-2.175 4.981-2.806v-.21h-2.175s-.42 1.613-2.806 1.543c-2.945 0-3.086-3.016-3.086-3.016h7.786c-.35-.702-.982-1.894-1.753-2.525z"/><path id="pyddm" d="M1213.983 5084.525c-.07-1.754-1.051-3.367-2.384-4.35.631.983.56 2.246.56 2.246s.071 3.437-3.295 3.437c-3.297.07-3.297-3.508-3.297-3.508s-.071-2.314 1.753-3.156c-1.613.21-2.946 1.122-3.858 2.385v3.296s0 1.473-.07 2.175h2.034l.07-1.263s.983 1.543 3.788 1.543c2.104-.14 3.928-1.052 4.7-2.805z"/><path id="pyddn" d="M1224.154 5086.98h-1.964l-.07-1.333c-.842 1.052-1.964 1.613-3.928 1.613s-4.419-.841-3.998-3.647c.35-2.385 4.209-2.525 5.331-2.525.631 0 2.455-.07 2.455-.07 0-.632 0-1.122-.35-1.544 1.051.421 1.893 1.193 2.524 2.105v3.086c0 1.473.07 2.174 0 2.315zm-2.174-4.49h-2.385s-3.367-.14-3.227 1.684c.14 1.684 2.245 1.684 2.245 1.684 3.857.07 3.437-3.368 3.367-3.368z"/><path id="pyddo" d="M1216.017 5079.895h1.123s.14-.42.49-.771c-.63.14-1.192.771-1.613.771z"/><path id="pyddp" d="M1228.363 5090.416l4.559-8.837a9.397 9.397 0 0 0-1.403-1.473l-2.455 4.7-2.805-5.402c-.632.28-1.193.702-1.684 1.193l3.296 6.313-1.893 3.506z"/></defs><g><g transform="translate(-1181 -5061)"><g><use fill="#f8f8f8" xlink:href="#pydda"/></g><g><g><g><use fill="#ff6c6c" xlink:href="#pyddb"/></g><g><use fill="#ee3b3f" xlink:href="#pyddc"/></g><g><use fill="#1992dd" xlink:href="#pyddd"/></g><g><use fill="#0468b2" xlink:href="#pydde"/></g><g><use fill="#ffce00" xlink:href="#pyddf"/></g><g><use fill="#f7ab1b" xlink:href="#pyddg"/></g><g><use fill="#85dd52" xlink:href="#pyddh"/></g><g><g><use fill="#6bb745" xlink:href="#pyddi"/></g><g><use fill="#6bb745" xlink:href="#pyddj"/></g><g><use fill="#6bb745" xlink:href="#pyddk"/></g></g><g><use fill="#c60c1e" xlink:href="#pyddl"/></g><g><use fill="#064c91" xlink:href="#pyddm"/></g><g><g><use fill="#f48d1c" xlink:href="#pyddn"/></g><g><use fill="#f48d1c" xlink:href="#pyddo"/></g></g><g><use fill="#4a9e19" xlink:href="#pyddp"/></g></g></g></g></g></svg>